<?xml version="1.0" standalone="no"?><!DOCTYPE svg PUBLIC "-//W3C//DTD SVG 1.1//EN" "http://www.w3.org/Graphics/SVG/1.1/DTD/svg11.dtd"><svg t="1724679738080" class="icon" viewBox="0 0 1024 1024" version="1.1" xmlns="http://www.w3.org/2000/svg" p-id="24236" width="48" height="48" xmlns:xlink="http://www.w3.org/1999/xlink"><path d="M896 0H128a128 128 0 0 0-128 128v768a128 128 0 0 0 128 128h768a128 128 0 0 0 128-128V128a128 128 0 0 0-128-128m64 896a64 64 0 0 1-64 64H128a64 64 0 0 1-64-64v-256h896z m0-320H64V128a64 64 0 0 1 64-64h768a64 64 0 0 1 64 64z" fill="#1296db" p-id="24237"></path><path d="M128 703.68h64v64H128zM287.36 895.68a32.64 32.64 0 0 0 32.64-32.64v-125.952a32.64 32.64 0 0 0-65.28 0v125.888a32.64 32.64 0 0 0 32.64 32.64M128 831.616h64v64H128zM832 703.68h64v64h-64zM732.992 895.68a32.64 32.64 0 0 0 32.64-32.64v-125.952a32.64 32.64 0 0 0-65.28 0v125.888a32.64 32.64 0 0 0 32.64 32.64M832 831.616h64v64h-64zM416 831.616h192a32 32 0 1 0 0-64h-192a32 32 0 1 0 0 64M476.416 297.216l-160-160a32 32 0 0 0-45.248 45.248l137.344 137.472-137.344 137.152a32 32 0 1 0 45.248 45.248l160-160a32 32 0 0 0 0-45.248M736 447.808h-256a32 32 0 1 0 0 64h256a32 32 0 1 0 0-64" fill="#1296db" p-id="24238"></path></svg>