<?xml version="1.0" standalone="no"?><!DOCTYPE svg PUBLIC "-//W3C//DTD SVG 1.1//EN" "http://www.w3.org/Graphics/SVG/1.1/DTD/svg11.dtd"><svg t="1724851198096" class="icon" viewBox="0 0 1024 1024" version="1.1" xmlns="http://www.w3.org/2000/svg" p-id="7229" width="16" height="16" xmlns:xlink="http://www.w3.org/1999/xlink"><path d="M1024 514.688h-96V128a32 32 0 0 0-32-32H128a32 32 0 0 0-32 32v768a32 32 0 0 0 32 32h489.088V1024H128a128 128 0 0 1-128-128V128a128 128 0 0 1 128-128h768a128 128 0 0 1 128 128v386.688z" fill="#1296db" p-id="7230"></path><path d="M576 848v-96h445.44v96z" fill="#1296db" p-id="7231"></path><path d="M752 576h96v447.168h-96z" fill="#1296db" p-id="7232"></path><path d="M256 256m32 0l448 0q32 0 32 32l0 0q0 32-32 32l-448 0q-32 0-32-32l0 0q0-32 32-32Z" fill="#1296db" p-id="7233"></path><path d="M256 448m32 0l448 0q32 0 32 32l0 0q0 32-32 32l-448 0q-32 0-32-32l0 0q0-32 32-32Z" fill="#1296db" p-id="7234"></path><path d="M256 640m32 0l192 0q32 0 32 32l0 0q0 32-32 32l-192 0q-32 0-32-32l0 0q0-32 32-32Z" fill="#1296db" p-id="7235"></path></svg>