<?xml version="1.0" standalone="no"?><!DOCTYPE svg PUBLIC "-//W3C//DTD SVG 1.1//EN" "http://www.w3.org/Graphics/SVG/1.1/DTD/svg11.dtd"><svg t="1724679269550" class="icon" viewBox="0 0 1024 1024" version="1.1" xmlns="http://www.w3.org/2000/svg" p-id="10269" xmlns:xlink="http://www.w3.org/1999/xlink" width="16" height="16"><path d="M512 256.981178c-88.193541 0-159.988282 71.794742-159.988282 159.988282s71.794742 159.988282 159.988282 159.988282c88.193541 0 159.988282-71.794742 159.988282-159.988282S600.193541 256.981178 512 256.981178z" p-id="10270" fill="#1296db"></path><path d="M512.099993 0l-0.199985 0C276.817225 0 70.032371 173.187315 70.032371 386.871665c0 315.776872 332.975612 569.058321 420.869175 630.453824 12.69907 8.899348 29.49784 8.899348 42.096917 0C620.992017 955.929986 953.967629 702.648536 953.967629 386.871665 953.967629 173.187315 747.182775 0 512.099993 0zM670.388399 575.35786C628.091497 617.654762 571.79562 640.953055 512 640.953055c-59.79562 0-116.091497-23.298294-158.388399-65.595196C311.314699 533.060957 288.016405 476.765081 288.016405 416.96946s23.298294-116.091497 65.595196-158.388399C395.908503 216.284159 452.20438 192.985865 512 192.985865c59.79562 0 116.091497 23.298294 158.388399 65.595196C712.685301 300.877963 735.983595 357.17384 735.983595 416.96946S712.685301 533.060957 670.388399 575.35786z" p-id="10271" fill="#1296db"></path></svg>