<?xml version="1.0" standalone="no"?><!DOCTYPE svg PUBLIC "-//W3C//DTD SVG 1.1//EN" "http://www.w3.org/Graphics/SVG/1.1/DTD/svg11.dtd"><svg t="1725245916971" class="icon" viewBox="0 0 1042 1024" version="1.1" xmlns="http://www.w3.org/2000/svg" p-id="20856" xmlns:xlink="http://www.w3.org/1999/xlink" width="16.28125" height="16"><path d="M896 559.542857C896 312.685714 691.2 0 530.285714 0S164.571429 314.514286 164.571429 559.542857c0 93.257143 29.257143 170.057143 84.114285 224.914286 56.685714 54.857143 138.971429 85.942857 245.028572 91.428571V1024h73.142857v-148.114286c106.057143-5.485714 188.342857-36.571429 245.028571-91.428571 54.857143-54.857143 84.114286-131.657143 84.114286-224.914286zM299.885714 731.428571c-42.057143-40.228571-62.171429-98.742857-62.171428-171.885714 0-202.971429 151.771429-429.714286 256-477.257143v219.428572c-20.114286-10.971429-40.228571-27.428571-40.228572-49.371429h-73.142857c0 73.142857 67.657143 113.371429 113.371429 129.828572V621.714286c-60.342857-29.257143-142.628571-84.114286-142.628572-171.885715h-73.142857c0 146.285714 142.628571 223.085714 215.771429 250.514286v102.4c-85.942857-5.485714-151.771429-29.257143-193.828572-71.314286zM566.857143 802.742857v-219.428571c56.685714-23.771429 162.742857-80.457143 162.742857-192h-73.142857c0 54.857143-49.371429 91.428571-89.6 111.542857v-420.571429c104.228571 47.542857 256 274.285714 256 477.257143 0 73.142857-20.114286 131.657143-62.171429 171.885714-43.885714 42.057143-107.885714 65.828571-193.828571 71.314286z" p-id="20857" fill="#2c2c2c"></path></svg>