<?xml version="1.0" standalone="no"?><!DOCTYPE svg PUBLIC "-//W3C//DTD SVG 1.1//EN" "http://www.w3.org/Graphics/SVG/1.1/DTD/svg11.dtd"><svg t="1724679597106" class="icon" viewBox="0 0 1024 1024" version="1.1" xmlns="http://www.w3.org/2000/svg" p-id="22100" xmlns:xlink="http://www.w3.org/1999/xlink" width="16" height="16"><path d="M768 71.8336 256 71.8336c-11.30496 0-20.48 9.17504-20.48 20.48l0 696.32c0 11.30496 9.17504 20.48 20.48 20.48s20.48-9.17504 20.48-20.48l0-675.84 471.04 0 0 14.71488L532.48 283.62752l0 668.53888 216.20736-156.9792c2.75456 8.06912 10.31168 13.91616 19.31264 13.91616 11.30496 0 20.48-9.17504 20.48-20.48l0-696.32C788.48 80.9984 779.30496 71.8336 768 71.8336zM613.72416 633.47712c-9.65632 0-17.70496-11.9296-19.78368-27.89376L570.88 605.58336l0-17.92 23.38816 0c2.44736-14.99136 10.17856-26.01984 19.44576-26.01984 11.22304 0 20.31616 16.0768 20.31616 35.92192C634.04032 617.40032 624.93696 633.47712 613.72416 633.47712z" p-id="22101" fill="#1296db"></path></svg>