<?xml version="1.0" standalone="no"?><!DOCTYPE svg PUBLIC "-//W3C//DTD SVG 1.1//EN" "http://www.w3.org/Graphics/SVG/1.1/DTD/svg11.dtd"><svg t="1724553495101" class="icon" viewBox="0 0 2048 1024" version="1.1" xmlns="http://www.w3.org/2000/svg" p-id="5412" xmlns:xlink="http://www.w3.org/1999/xlink" width="26" height="13"><path d="M780.355149 1023.552945h-3.071368c-99.307587 0-198.615174 1.02379-298.036515-0.341263a470.260669 470.260669 0 0 1-293.031321-105.564078 486.755056 486.755056 0 0 1-168.356505-255.833635A472.535757 472.535757 0 0 1 0 534.181538c0-27.301055 0-54.60211 1.933825-81.78941 3.867649-55.853408 17.85944-109.431728 40.951582-160.393697A485.731266 485.731266 0 0 1 300.311603 38.326131C346.950905 18.305357 395.637786 6.588655 446.144737 2.379742c15.584352-1.137544 31.282459-1.82007 46.866811-1.82007C605.514644 0.332163 717.903986-0.464118 830.407083 0.673426a471.170704 471.170704 0 0 1 307.819393 115.346956 487.210073 487.210073 0 0 1 162.896293 271.417987c7.621544 33.330038 11.602948 67.115093 11.602948 101.355166 0 26.959792-0.796281 53.919583-2.161333 80.76562-0.682526 14.788071-3.412632 29.576143-5.346457 44.591723H1093.29349c2.957614-11.261685 6.597755-22.182107 8.872842-33.443792 22.978388-115.574465-7.052772-214.654543-91.572287-295.761427a286.888584 286.888584 0 0 0-158.346118-76.329199c-14.105545-2.275088-28.438599-3.412632-42.657898-3.412632-102.720219-0.227509-205.440437-0.568772-308.046902 0-133.092642 0.682526-250.714686 91.572288-287.684865 221.138544a307.933147 307.933147 0 0 0 179.049418 370.839327c36.060143 14.560563 73.485339 21.727089 112.275588 21.72709h115.119448c3.185123 0 5.118948 0.568772 6.484 3.867649a495.172881 495.172881 0 0 0 152.772152 199.2977l0.796281 1.478807zM1267.22396 0.445917h3.071368c99.307587 0 198.615174-1.02379 298.036515 0.341263 109.090465 1.478807 207.146753 37.197687 293.031321 105.564079a486.755056 486.755056 0 0 1 168.356505 255.833634c11.716703 41.747863 17.85944 84.292007 17.85944 127.632431 0 27.301055 0 54.60211-1.933825 81.78941a463.094142 463.094142 0 0 1-40.951582 160.393697 485.731266 485.731266 0 0 1-257.426196 253.672301c-46.639302 20.020774-95.326183 31.851231-145.833134 35.946389-15.584352 1.137544-31.282459 1.82007-46.866811 1.82007-112.503097 0.227509-224.892439 1.02379-337.395535-0.113755A471.170704 471.170704 0 0 1 909.352633 907.864726a487.210073 487.210073 0 0 1-162.896293-271.417987 455.245089 455.245089 0 0 1-11.602949-101.355166c0.113754-26.959792 0.796281-53.919583 2.161334-80.76562 0.682526-14.788071 3.412632-29.576143 5.346456-44.591723h211.924438c-2.957614 11.261685-6.597755 22.182107-8.872843 33.443792-22.978388 115.574465 7.052772 214.654543 91.572288 295.761427 44.364214 42.430389 98.056288 67.115093 158.346118 76.329199 14.105545 2.275088 28.438599 3.412632 42.657898 3.412632 102.720219 0.227509 205.440437 0.568772 308.046901 0 133.092642-0.682526 250.714686-91.572288 287.684865-221.138544a307.933147 307.933147 0 0 0-179.049417-370.839327 296.898971 296.898971 0 0 0-112.275588-21.72709h-115.119448c-3.185123 0-5.118948-0.568772-6.484-3.867649A495.059127 495.059127 0 0 0 1268.02024 1.924724L1267.22396 0.445917z" fill="#ffffff" p-id="5413"></path></svg>